<?xml version="1.0" encoding="utf-8"?>
<!-- Generator: Adobe Illustrator 21.1.0, SVG Export Plug-In . SVG Version: 6.00 Build 0)  -->
<svg version="1.1" id="Layer_1" xmlns="http://www.w3.org/2000/svg" xmlns:xlink="http://www.w3.org/1999/xlink" x="0px" y="0px"
	 viewBox="0 0 512 512" style="enable-background:new 0 0 512 512;" xml:space="preserve">
<style type="text/css">
	.st0{fill:#e9224d;}
	.st1{fill:none;}
	.st2{enable-background:new    ;}
	.st3{fill:#FFFFFF;}
</style>
<g id="Layer_2">
	<g id="Layer_2_background">
		<g>
			<g>
				<circle class="st0" cx="256.1" cy="255.7" r="239.3"/>
			</g>
		</g>
	</g>
</g>
<g id="Layer_1_1_">
	<g>
		<rect x="121.1" y="129.1" class="st1" width="269.8" height="251.8"/>
	</g>
	<g class="st2">
		<path class="st3" d="M174,379.7V129.2h70.9c17.5,0,30.9,1.5,40,4.6c12,4,22.3,11.3,31.1,21.9c8.8,10.6,15.6,24,20.5,40.1
			c4.9,16.1,7.3,35.2,7.3,57.3c0,28.4-4.2,52.4-12.5,72.2c-8.3,19.8-19,33.8-32,42c-13,8.3-30.1,12.4-51.2,12.4H174z M201.1,350.2
			h43.8c17.7,0,31-2.9,40.2-8.6c9.1-5.8,16.1-15,21-27.8c6.5-17,9.7-37.3,9.7-61c0-25.4-3.4-45.4-10.3-59.9
			c-6.9-14.5-15.8-24.2-26.6-29.1c-7.3-3.3-18.9-5-34.7-5h-43.1V350.2z"/>
	</g>
</g>
</svg>
